<svg
   viewBox="0 0 35.072678 65.22435"
   xmlns="http://www.w3.org/2000/svg"
   xmlns:svg="http://www.w3.org/2000/svg">
  <g
     transform="translate(-79.816638,-93.95258)">
    <path
       style="fill:#555"
       d="m 95.898646,156.83758 1.229472,2.08476 c 1.719252,0.45849 3.124172,0.23165 4.276412,-0.16037 l 1.28293,-2.24511 z"/>
    <path
       style="fill:#bbb"
       d="m 89.817498,142.58321 1.936081,14.24102 c 5.649921,1.73723 10.506451,1.1069 14.878961,-0.89274 l 0.22216,-14.37372 z"/>
    <path
       style="stroke:#ddd;stroke-width:2;stroke-linecap:round"
       d="M 90.125485,148.17784 107.1777,143.90143"/>
    <path
       style="stroke:#ddd;stroke-width:2;stroke-linecap:round"
       d="m 90.606582,151.59898 16.624578,-4.1695"/>
    <path
       style="stroke:#ddd;stroke-width:2;stroke-linecap:round"
       d="m 91.087679,155.18047 16.196941,-4.06259"/>
    <path
       style="fill:#24bcbc"
       d="m 89.817497,142.58321 c -17.786579,-8.00055 -9.389238,-48.724076 6.053679,-48.630469 15.220724,0.09226 27.855064,36.952589 10.983524,47.605029 -3.87724,1.72506 -11.462607,2.2825 -17.037203,1.02544 z"/>
    <path
       style="fill:#fff"
       d="M 90.662457,97.804356 C 87.1907,105.7398 80.74315,128.8518 93.241476,140.85415 76.180271,134.10903 81.754731,105.71449 90.662457,97.804356 Z"/>
  </g>
</svg>

